<svg xmlns="http://www.w3.org/2000/svg" width="1200" height="675" viewBox="0 0 1200 675">
  <rect width="1200" height="675" fill="#f8fafc"/>
  <rect x="0" y="0" width="220" height="675" fill="#f1f5f9"/>
  <rect x="252" y="24" width="160" height="32" rx="6" fill="#e2e8f0"/>
  <rect x="252" y="72" width="920" height="40" rx="6" fill="#fff" stroke="#e2e8f0"/>
  <rect x="252" y="128" width="920" height="36" rx="0" fill="#f1f5f9"/>
  <rect x="252" y="164" width="920" height="48" rx="0" fill="#fff" stroke="#f1f5f9" stroke-width="0.5"/>
  <rect x="252" y="212" width="920" height="48" rx="0" fill="#fafafa" stroke="#f1f5f9" stroke-width="0.5"/>
  <rect x="252" y="260" width="920" height="48" rx="0" fill="#fff" stroke="#f1f5f9" stroke-width="0.5"/>
  <rect x="252" y="308" width="920" height="48" rx="0" fill="#fafafa" stroke="#f1f5f9" stroke-width="0.5"/>
  <rect x="252" y="356" width="920" height="48" rx="0" fill="#fff" stroke="#f1f5f9" stroke-width="0.5"/>
  <rect x="252" y="404" width="920" height="48" rx="0" fill="#fafafa" stroke="#f1f5f9" stroke-width="0.5"/>
  <rect x="252" y="452" width="920" height="48" rx="0" fill="#fff" stroke="#f1f5f9" stroke-width="0.5"/>
  <rect x="252" y="500" width="920" height="48" rx="0" fill="#fafafa" stroke="#f1f5f9" stroke-width="0.5"/>
  <circle cx="280" cy="188" r="14" fill="#ddd6fe"/>
  <circle cx="280" cy="236" r="14" fill="#ddd6fe"/>
  <circle cx="280" cy="284" r="14" fill="#ddd6fe"/>
  <circle cx="280" cy="332" r="14" fill="#ddd6fe"/>
  <circle cx="280" cy="380" r="14" fill="#bbf7d0"/>
  <circle cx="280" cy="428" r="14" fill="#bbf7d0"/>
  <circle cx="280" cy="476" r="14" fill="#fde68a"/>
  <circle cx="280" cy="524" r="14" fill="#e2e8f0"/>
  <text x="600" y="620" text-anchor="middle" font-family="system-ui,sans-serif" font-size="18" fill="#94a3b8">Contacts — Screenshot Placeholder (Light)</text>
</svg>
