<svg xmlns="http://www.w3.org/2000/svg" width="1200" height="675" viewBox="0 0 1200 675">
  <rect width="1200" height="675" fill="#0f172a"/>
  <rect x="0" y="0" width="220" height="675" fill="#1e293b"/>
  <rect x="252" y="24" width="120" height="32" rx="6" fill="#334155"/>
  <rect x="252" y="72" width="920" height="40" rx="6" fill="#1e293b" stroke="#334155"/>
  <rect x="252" y="128" width="920" height="36" fill="#1e293b"/>
  <rect x="252" y="164" width="920" height="48" fill="#0f172a" stroke="#1e293b" stroke-width="0.5"/>
  <rect x="252" y="212" width="920" height="48" fill="#1e293b" stroke="#1e293b" stroke-width="0.5"/>
  <rect x="252" y="260" width="920" height="48" fill="#0f172a" stroke="#1e293b" stroke-width="0.5"/>
  <rect x="252" y="308" width="920" height="48" fill="#1e293b" stroke="#1e293b" stroke-width="0.5"/>
  <rect x="252" y="356" width="920" height="48" fill="#0f172a" stroke="#1e293b" stroke-width="0.5"/>
  <rect x="700" y="172" width="60" height="20" rx="4" fill="#4c1d95"/>
  <rect x="700" y="220" width="80" height="20" rx="4" fill="#5b21b6"/>
  <rect x="700" y="268" width="70" height="20" rx="4" fill="#166534"/>
  <rect x="700" y="316" width="50" height="20" rx="4" fill="#854d0e"/>
  <rect x="700" y="364" width="90" height="20" rx="4" fill="#166534"/>
  <text x="600" y="480" text-anchor="middle" font-family="system-ui,sans-serif" font-size="18" fill="#64748b">Deals — Screenshot Placeholder (Dark)</text>
</svg>
